<svg xmlns="http://www.w3.org/2000/svg" viewBox="0 0 1000 328.2" style="enable-background:new 0 0 1000 328.2" xml:space="preserve"><path d="M473.5 194.1c12.4.6 22.9 4.1 22.9 18.8 0 14.7-10.6 18.2-22.9 18.8v31.8c17.1 1.2 17.6 10 19.4 27.6 1.2 11.8 2.4 23.5 5.3 34.7H547c-4.1-13.5-6.5-25.9-7.6-39.4-2.9-25.3-8.2-40-37.1-40.6v-.6c22.4-2.9 41.2-15.3 41.2-40 0-34.1-35.9-41.8-62.9-41.8h-7.1v30.7zm-22.9 37.1v-37.1h23.5v-31.8h-68.8v162.4h45.3v-61.8h22.9v-31.8h-22.9zm223.5 12.9c0 24.1-5.9 52.4-37.1 52.4v31.2c53.5 0 84.1-31.2 84.1-84.7s-30.6-84.1-84.1-84.1v31.8c30.6-.1 37.1 28.1 37.1 53.4m-37 53c-30.6 0-37.1-28.2-37.1-52.4 0-25.3 6.5-54.1 37.1-54.1v-31.8c-53.5 0-84.1 31.2-84.1 84.7s30.6 84.7 84.1 84.7v-31.1zm139.4 27.6V187.6h.6l35.3 137.1H853l38.2-136.5.6.6v135.9h38.8V162.4h-69.4l-25.9 110h-.6l-26.5-110h-70.6v162.4l38.9-.1zm178.2-162.3h45.3v162.4h-45.3V162.4z"/><path d="M0 162.4C0 72.4 72.4 0 161.8 0c90 0 162.4 72.4 162.4 162.4 0 67.6-41.2 125.9-100 150l-62.4-61.8v33.5c-66.5-.6-120.6-54.7-120.6-121.8S95.3 41.8 161.8 41.8 283 95.9 283 163c0 42.9-22.9 81.2-56.5 102.4l-64.1-64.7v-38.2l62.4 62.4c15.9-15.9 25.9-38.2 25.9-62.4 0-48.2-39.4-87.6-87.6-87.6s-87.6 39.4-87.6 87.6c0 48.8 39.4 87.6 87.6 87.6v-38.2l62.4 62.4.6.6C265.5 252.5 292 210.2 292 162c0-71.2-57.6-129.4-129.4-129.4C91.2 32.4 32.9 90 32.9 161.8s58.2 129.4 129.4 129.4v33.5C72.4 324.7 0 252.4 0 162.4" style="fill:#0067a6"/></svg>